<svg xmlns="http://www.w3.org/2000/svg" viewBox="0 0 604.41 335.48"><defs><style>.cls-1{fill:#fff;}</style></defs><title>white logo</title><g id="Layer_2" data-name="Layer 2"><g id="LOGOTEMPLATE"><path class="cls-1" d="M318.82,209.47s6.37-23.09,26.81-29.73,23.89-9.55,23.89-9.55-3.45,20.7-13.81,23.89-21.23,0-21.23,0A32.71,32.71,0,0,0,318.82,209.47Z"/><path class="cls-1" d="M285.59,209.47s-6.37-23.09-26.81-29.73-23.89-9.55-23.89-9.55,3.46,20.7,13.81,23.89,21.23,0,21.23,0A32.71,32.71,0,0,1,285.59,209.47Z"/><path class="cls-1" d="M277.52,207.66s11.11,4.87,11.25,26.35,0,38,0,38S286,230.32,277.52,207.66Z"/><path class="cls-1" d="M327.4,207.66s-11.11,4.87-11.25,26.35,0,38,0,38S318.89,230.32,327.4,207.66Z"/><path class="cls-1" d="M461.18,162.88c-23.92-15.86-38.5-44.06-43.47-54.94l-.45-1c-1-2.19-1.48-3.47-1.48-3.47s0,.19,0,.28a109,109,0,0,0-7.14-12.43C419.47,74.68,431.29,43.93,420.23,0c-12.49,14.93-41.85,51.62-57.37,56.25-17.69-5.74-33.71-5.09-40.76-5.09H282.31c-7.05,0-23.06-.65-40.76,5.09C226,51.62,196.67,14.93,184.18,0c-11.06,47.31,6.21,77.43,11.63,91.31a109,109,0,0,0-7.14,12.43c0-.09,0-.18,0-.28s-.5,1.28-1.48,3.47l-.45,1c-5,10.88-19.55,39.08-43.47,54.94a27,27,0,0,0,17.68,4.23c-6.86,10.56-14.68,28.36-9.4,50.09,4.38-9,9.3-14.77,13.43-18.45a72.45,72.45,0,0,0,3.56,11.16c6.78,17.38,23.31,32.64,33.91,37.72-4.66-22.46-5.51-36.88-5.51-36.88s5.08,34.34,32.64,61c-2.12-19.92,4-33.06,4-33.06s14.66,58.5,26.53,79.27c4.37,9.14,29.86,16.05,41.12,17.39a6.18,6.18,0,0,0,2.06,0c11.25-1.34,36.74-8.25,41.11-17.39,11.87-20.77,26.53-79.27,26.53-79.27s6.11,13.14,4,33.06c27.56-26.7,32.64-61,32.64-61s-.84,14.42-5.51,36.88c10.6-5.08,27.13-20.34,33.91-37.72a72.45,72.45,0,0,0,3.56-11.16c4.13,3.68,9,9.47,13.44,18.45,5.27-21.73-2.55-39.53-9.41-50.09A27,27,0,0,0,461.18,162.88Zm-43.74-149c5.41,45.63-12.84,73.34-12.84,73.34s-2.2-11.66-19.94-20.62C402.57,56.1,414.74,19.26,417.44,13.85Zm-229,.09c2.7,5.41,13.77,42.16,31.68,52.63-17.74,9-19.94,20.62-19.94,20.62S183.59,61.5,188.41,13.94ZM391.48,167.09c15.71,17.93-2.53,62.53-11.15,76.22a100.09,100.09,0,0,1-6.59-37.51c-7.86,26.52-25.58,141.25-66.3,110.27-3.75-4.4-3-10.41-3-10.41l-2.23.44-2.24-.44s.75,6-3,10.39c-44.8,28-58.41-83.76-66.26-110.25a99.85,99.85,0,0,1-6.59,37.51C215.53,229.62,197.28,185,213,167.09a27.47,27.47,0,0,0-24.33,7.28c5-10,11.9-20.09,23-27.38,9.7-6.88,18-8.48,28.48-11.4,13.68-3.8,18.84-8.87,9-23.06,27,18.85,38.71,40.73,42.64,49.64,8.39,15.88,10.41,33.2,10.41,33.2l.06-1.19v1.19a107,107,0,0,1,10.09-32.61c3.66-8.5,15.32-30.95,42.9-50.23-9.8,14.19-4.65,19.26,9,23.06,10.3,2.86,18.45,4.44,27.9,11,11.46,7.32,18.53,17.63,23.61,27.8A27.47,27.47,0,0,0,391.48,167.09Z"/><path class="cls-1" d="M320.83,284.18H283.58c-9.11,0-7,14.53,0,18.35,5.26,2.86,13.71,4.29,17.59,4.83a13,13,0,0,0,2.07,0c3.88-.54,12.33-2,17.59-4.83C327.82,298.71,329.94,284.18,320.83,284.18Z"/><path class="cls-1" d="M557.9,304.2s-18.55,13.54-35.78-3.7S488.66,264,477.85,264.34s-4.64,10.12,7.44,13.52c19.51,5.49,24.24,17.66,35.06,25.43S540,318.33,557.9,304.2Z"/><path class="cls-1" d="M603.21,292.16c-7.16-11.37-53.63-55.77-59.23-65.61s.34-22.7-7.27-37.82c-4.82-9.57-45.93-40-75.47-61.08,14.13-25.59,13.65-75.78,13.65-75.78L419.64,98l12.94,9.55-1.73-1.18S438,115.16,455,129.09s60.62,47.61,65.89,58.8,4.56,26.91,4.56,26.91-.33,6.88,10.65,22.68c7.77,11,21.84,33.71,34.13,58.21,0,0-27.43,21.61-40.89,18.24S492,284.1,468.14,278.45c-15.23-3.6-36.26-1.36-56,3.32A182.06,182.06,0,0,0,381,291.53a43.74,43.74,0,0,0-26,31.71c15.21-11.31,35.48-13.78,54-12.26,0,0-11.16-6.34-19.52-7.1,12.42-5.83,24.84-5.07,49.17-3,0,0-19.21-10.94-43.1-11.87,21.88-3.63,57.68-8.25,75.08-.47,22.33,10,48.26,34.45,59.9,34.72s20.66-5.78,42.51-19C583.58,310.05,610.37,303.54,603.21,292.16ZM432.76,107.68a306.91,306.91,0,0,0,34.36-37.05c1.52,26.76-8.18,49.69-10.13,54C445.65,116.59,436.55,110.29,432.76,107.68Z"/><path class="cls-1" d="M483.85,186.7s27.88,16.92,33.2,22.77-.72,19.33.26,25.89c-8.65-11.11-9.75-6.21-13.18-17.14C498.21,199.38,483.85,186.7,483.85,186.7Z"/><path class="cls-1" d="M46.51,304.2s18.55,13.54,35.78-3.7,33.46-36.49,44.27-36.16,4.64,10.12-7.43,13.52c-19.52,5.49-24.25,17.66-35.06,25.43S64.47,318.33,46.51,304.2Z"/><path class="cls-1" d="M224.55,291.53c-20-8.57-42.59-12.12-48.18-12.9-14.63-2.3-28.92-2.82-40.09-.18-23.89,5.65-47.71,32.12-61.17,35.48s-40.89-18.24-40.89-18.24c12.29-24.5,26.36-47.22,34.13-58.21C79.33,221.68,79,214.8,79,214.8s-.71-15.73,4.56-26.91,48.9-44.87,65.89-58.8,24.11-22.72,24.11-22.72l-1.73,1.18L184.77,98,129.52,51.87s-.48,50.19,13.66,75.78c-29.55,21.07-70.66,51.51-75.48,61.08-7.6,15.12-1.68,28-7.27,37.82S8.36,280.79,1.2,292.16s19.63,17.89,30.27,12.11c21.84,13.18,30.86,19.23,42.5,19s37.57-24.74,59.9-34.72c17.45-7.8,53.42-3.13,75.28.5-23.47,1.16-42.2,11.84-42.2,11.84,24.33-2,36.75-2.8,49.16,3-8.36.76-19.51,7.1-19.51,7.1,18.5-1.52,38.78.95,54,12.26A43.71,43.71,0,0,0,224.55,291.53ZM137.29,70.63a307.86,307.86,0,0,0,34.36,37.05c-3.79,2.61-12.89,8.91-24.23,16.95C145.47,120.32,135.77,97.39,137.29,70.63Z"/><path class="cls-1" d="M120.56,186.7s-27.87,16.92-33.2,22.77.72,19.33-.26,25.89c8.65-11.11,9.75-6.21,13.19-17.14C106.2,199.38,120.56,186.7,120.56,186.7Z"/><circle class="cls-1" cx="253.29" cy="183.34" r="3.29"/><circle class="cls-1" cx="90.18" cy="216.29" r="3.29"/><circle class="cls-1" cx="513.58" cy="216.29" r="3.29"/><circle class="cls-1" cx="351.63" cy="183.34" r="3.29"/></g></g></svg>