<svg xmlns="http://www.w3.org/2000/svg" xmlns:xlink="http://www.w3.org/1999/xlink" viewBox="0 0 177.36 384"><defs><linearGradient id="a" x1="55.19" y1="88.95" x2="64.48" y2="88.95" gradientUnits="userSpaceOnUse"><stop offset="0" stop-color="#e7aa39"/><stop offset=".23" stop-color="#f7fc97"/><stop offset=".45" stop-color="#e7aa39"/><stop offset="1" stop-color="#632507"/></linearGradient><linearGradient id="b" x1="54.94" y1="88.95" x2="64.76" y2="88.95" gradientUnits="userSpaceOnUse"><stop offset="0" stop-color="#24304a"/><stop offset="1" stop-color="#10131e"/></linearGradient><linearGradient id="d" x1="65.7" y1="90.27" x2="73.31" y2="90.27" xlink:href="#a"/><linearGradient id="e" x1="74.71" y1="90.19" x2="79.41" y2="90.19" xlink:href="#a"/><linearGradient id="f" x1="79.84" y1="90.27" x2="87.23" y2="90.27" xlink:href="#a"/><linearGradient id="g" x1="87.55" y1="88.95" x2="96.03" y2="88.95" xlink:href="#a"/><linearGradient id="h" x1="96.58" y1="90.19" x2="101.28" y2="90.19" xlink:href="#a"/><linearGradient id="i" x1="102.3" y1="88.66" x2="104.63" y2="88.66" xlink:href="#a"/><linearGradient id="j" x1="106.28" y1="89.01" x2="113.83" y2="89.01" xlink:href="#a"/><linearGradient id="k" x1="114.94" y1="90.27" x2="122.34" y2="90.27" xlink:href="#a"/><linearGradient id="l" x1="91.36" y1="52.93" x2="99.53" y2="52.93" xlink:href="#a"/><linearGradient id="m" x1="77.83" y1="52.93" x2="86" y2="52.93" xlink:href="#a"/><linearGradient id="n" x1="84.7" y1="60.99" x2="86.52" y2="60.99" xlink:href="#a"/><linearGradient id="o" x1="90.92" y1="60.99" x2="92.74" y2="60.99" xlink:href="#a"/><linearGradient id="p" x1="63.05" y1="49.36" x2="114.31" y2="49.36" xlink:href="#a"/><linearGradient id="q" x1="84.7" y1="70.01" x2="92.66" y2="70.01" xlink:href="#a"/><linearGradient id="r" x1="116.1" y1="68.8" x2="129.91" y2="68.8" xlink:href="#a"/><linearGradient id="s" x1="97.18" y1="52.56" x2="137.41" y2="52.56" xlink:href="#a"/><linearGradient id="t" x1="117.97" y1="56.34" x2="123.68" y2="56.34" xlink:href="#a"/><linearGradient id="u" x1="47.45" y1="68.8" x2="61.26" y2="68.8" xlink:href="#a"/><linearGradient id="v" x1="39.95" y1="52.56" x2="80.36" y2="52.56" xlink:href="#a"/><linearGradient id="w" x1="53.68" y1="56.34" x2="59.39" y2="56.34" xlink:href="#a"/><linearGradient id="x" x1="80.26" y1="51.88" x2="81.32" y2="51.88" xlink:href="#a"/><linearGradient id="y" x1="53.96" y1="57.19" x2="55.02" y2="57.19" xlink:href="#a"/><linearGradient id="z" x1="122.23" y1="57.19" x2="123.29" y2="57.19" xlink:href="#a"/><linearGradient id="A" x1="96.12" y1="51.88" x2="97.18" y2="51.88" xlink:href="#a"/><radialGradient id="c" cx="-45.17" cy="-11053.18" r="36.97" gradientTransform="matrix(1.32 0 0 .13 148.36 1598.22)" gradientUnits="userSpaceOnUse"><stop offset="0" stop-color="#0e121c"/><stop offset="1" stop-color="#0e121c" stop-opacity="0"/></radialGradient></defs><g style="isolation:isolate"><path style="fill:#0e121c" d="M-.08-.31h177.33v384.36H0L-.08-.31z"/><ellipse cx="88.68" cy="110.46" rx="48.84" ry="4.98" style="opacity:.5;mix-blend-mode:multiply;fill:url(#c)"/><path d="M64.48 87.4h-2.21a2.26 2.26 0 0 0-.24-.76 2.21 2.21 0 0 0-.48-.57 2.07 2.07 0 0 0-.67-.36 2.49 2.49 0 0 0-.83-.13 2.39 2.39 0 0 0-1.39.4 2.51 2.51 0 0 0-.93 1.15 4.7 4.7 0 0 0-.32 1.87 4.62 4.62 0 0 0 .33 1.86A2.37 2.37 0 0 0 60 92.32a3 3 0 0 0 .81-.11 2.23 2.23 0 0 0 .67-.34 1.82 1.82 0 0 0 .48-.55 2.18 2.18 0 0 0 .27-.74h2.21a4.19 4.19 0 0 1-.38 1.42 4.33 4.33 0 0 1-.92 1.18 4.27 4.27 0 0 1-1.36.81 5 5 0 0 1-1.78.3 4.89 4.89 0 0 1-2.46-.62 4.42 4.42 0 0 1-1.72-1.81 6.8 6.8 0 0 1 0-5.74 4.49 4.49 0 0 1 1.72-1.81 4.9 4.9 0 0 1 2.46-.66 5.62 5.62 0 0 1 1.67.25 4.37 4.37 0 0 1 1.36.74 3.8 3.8 0 0 1 1 1.17 4.48 4.48 0 0 1 .45 1.59z" style="fill:url(#a);stroke:url(#linear-gradient-2);stroke-miterlimit:10;stroke-width:.5px"/><path d="M69.5 94.26a3.86 3.86 0 0 1-2-.5 3.37 3.37 0 0 1-1.32-1.4 5 5 0 0 1 0-4.19 3.43 3.43 0 0 1 1.32-1.4 4.35 4.35 0 0 1 4 0 3.43 3.43 0 0 1 1.32 1.4 5 5 0 0 1 0 4.19 3.37 3.37 0 0 1-1.32 1.4 3.87 3.87 0 0 1-2 .5zm0-1.66a1.36 1.36 0 0 0 .9-.3 1.91 1.91 0 0 0 .54-.84 3.69 3.69 0 0 0 .18-1.2 3.8 3.8 0 0 0-.12-1.21 1.82 1.82 0 0 0-.54-.83 1.31 1.31 0 0 0-.9-.31 1.33 1.33 0 0 0-.9.31 1.84 1.84 0 0 0-.55.83 3.8 3.8 0 0 0-.18 1.21 3.69 3.69 0 0 0 .18 1.2 1.93 1.93 0 0 0 .55.84 1.38 1.38 0 0 0 .85.3z" style="fill:url(#d);stroke:url(#linear-gradient-4);stroke-miterlimit:10;stroke-width:.5px"/><path d="M74.71 94.11v-7.74h2.09v1.35h.08a2 2 0 0 1 .71-1.09 1.84 1.84 0 0 1 1.15-.37h.34a1.39 1.39 0 0 1 .33.06v1.9a2.42 2.42 0 0 0-.42-.08h-.49a1.68 1.68 0 0 0-.84.2 1.45 1.45 0 0 0-.58.57 1.54 1.54 0 0 0-.22.83v4.38z" style="fill:url(#e);stroke:url(#linear-gradient-6);stroke-miterlimit:10;stroke-width:.5px"/><path d="M83.68 94.26a4.12 4.12 0 0 1-2.05-.48 3.34 3.34 0 0 1-1.33-1.38 4.57 4.57 0 0 1-.46-2.12 4.51 4.51 0 0 1 .46-2.1 3.5 3.5 0 0 1 1.31-1.41 3.83 3.83 0 0 1 2-.5 4 4 0 0 1 1.43.25 3.13 3.13 0 0 1 1.16.73 3.19 3.19 0 0 1 .8 1.23 4.74 4.74 0 0 1 .28 1.72v.59H82v-1.26l3.25-.07a1.69 1.69 0 0 0-.2-.82 1.37 1.37 0 0 0-.56-.56 1.56 1.56 0 0 0-.82-.21 1.66 1.66 0 0 0-.87.23 1.59 1.59 0 0 0-.58.6 1.69 1.69 0 0 0-.22.83v1.27a2.19 2.19 0 0 0 .21 1 1.57 1.57 0 0 0 .61.64 1.83 1.83 0 0 0 .93.23 2 2 0 0 0 .66-.1 1.44 1.44 0 0 0 .51-.3 1.3 1.3 0 0 0 .32-.5l2 .13a2.68 2.68 0 0 1-.62 1.25 3.07 3.07 0 0 1-1.2.83 4.64 4.64 0 0 1-1.74.28z" style="fill:url(#f);stroke:url(#linear-gradient-8);stroke-miterlimit:10;stroke-width:.5px"/><path d="M87.55 85.59v-1.8H96v1.8h-3.13v8.52h-2.16v-8.52z" style="fill:url(#g);stroke:url(#linear-gradient-10);stroke-miterlimit:10;stroke-width:.5px"/><path d="M96.58 94.11v-7.74h2.08v1.35h.09a2 2 0 0 1 .71-1.09 1.83 1.83 0 0 1 1.14-.37h.35a1.39 1.39 0 0 1 .33.06v1.9a2.42 2.42 0 0 0-.42-.08h-.49a1.68 1.68 0 0 0-.84.2 1.54 1.54 0 0 0-.59.57 1.63 1.63 0 0 0-.21.83v4.38z" style="fill:url(#h);stroke:url(#linear-gradient-12);stroke-miterlimit:10;stroke-width:.5px"/><path d="M103.47 85.37a1.15 1.15 0 0 1-.82-.31 1 1 0 0 1-.35-.77 1 1 0 0 1 .35-.77 1.15 1.15 0 0 1 .81-.32 1.2 1.2 0 0 1 .83.32 1 1 0 0 1 0 1.53 1.13 1.13 0 0 1-.82.32zm-1.09 8.74v-7.74h2.15v7.74z" style="fill:url(#i);stroke:url(#linear-gradient-14);stroke-miterlimit:10;stroke-width:.5px"/><path d="M106.28 94.11V83.79h2.15v3.88h.06a3.18 3.18 0 0 1 .42-.64 2.29 2.29 0 0 1 .7-.54 2.35 2.35 0 0 1 1.09-.22 3 3 0 0 1 1.56.44A3.06 3.06 0 0 1 113.4 88a5 5 0 0 1 .43 2.21 5.28 5.28 0 0 1-.41 2.19 3.14 3.14 0 0 1-1.13 1.34 2.88 2.88 0 0 1-1.6.46 2.44 2.44 0 0 1-1.06-.21 2.14 2.14 0 0 1-.71-.52 2.48 2.48 0 0 1-.43-.64h-.09v1.24zm2.1-3.87a3.45 3.45 0 0 0 .2 1.21 1.71 1.71 0 0 0 .55.79 1.5 1.5 0 0 0 1.77 0 1.8 1.8 0 0 0 .55-.81 3.79 3.79 0 0 0 0-2.37 1.64 1.64 0 0 0-.55-.79 1.34 1.34 0 0 0-.9-.27 1.36 1.36 0 0 0-.88.28 1.63 1.63 0 0 0-.55.78 3.35 3.35 0 0 0-.19 1.18z" style="fill:url(#j);stroke:url(#linear-gradient-16);stroke-miterlimit:10;stroke-width:.5px"/><path d="M118.78 94.26a4.14 4.14 0 0 1-2-.48 3.38 3.38 0 0 1-1.32-1.38 4.57 4.57 0 0 1-.47-2.12 4.52 4.52 0 0 1 .47-2.1 3.43 3.43 0 0 1 1.31-1.41 3.83 3.83 0 0 1 2-.5 4 4 0 0 1 1.43.25 3.13 3.13 0 0 1 1.16.73 3.31 3.31 0 0 1 .77 1.23 5 5 0 0 1 .28 1.72v.59h-5.27v-1.33h3.25a1.59 1.59 0 0 0-.21-.82 1.41 1.41 0 0 0-.55-.56 1.6 1.6 0 0 0-.83-.21 1.65 1.65 0 0 0-.86.23 1.62 1.62 0 0 0-.59.6 1.68 1.68 0 0 0-.21.83v1.27a2.19 2.19 0 0 0 .21 1 1.51 1.51 0 0 0 .61.64 1.83 1.83 0 0 0 .93.23 1.89 1.89 0 0 0 .65-.1 1.44 1.44 0 0 0 .51-.3 1.45 1.45 0 0 0 .33-.5l2 .13a2.68 2.68 0 0 1-.62 1.25 3.07 3.07 0 0 1-1.2.83 4.6 4.6 0 0 1-1.78.28z" style="fill:url(#k);stroke:url(#linear-gradient-18);stroke-miterlimit:10;stroke-width:.5px"/><path d="M91.36 56.09s1-3.72 4.32-4.79 3.85-1.54 3.85-1.54-.53 3.34-2.22 3.85a6.79 6.79 0 0 1-3.43 0 5.27 5.27 0 0 0-2.52 2.48z" style="fill:url(#l);stroke:url(#linear-gradient-20);stroke-miterlimit:10;stroke-width:.5px"/><path d="M86 56.09s-1-3.72-4.32-4.79-3.85-1.54-3.85-1.54.55 3.34 2.22 3.85a6.79 6.79 0 0 0 3.43 0A5.27 5.27 0 0 1 86 56.09z" style="fill:url(#m);stroke:url(#linear-gradient-22);stroke-miterlimit:10;stroke-width:.5px"/><path d="M84.7 55.8s1.79.79 1.81 4.25 0 6.13 0 6.13-.44-6.73-1.81-10.38z" style="fill:url(#n);stroke:url(#linear-gradient-24);stroke-miterlimit:10;stroke-width:.5px"/><path d="M92.74 55.8s-1.79.79-1.81 4.25 0 6.13 0 6.13.44-6.73 1.81-10.38z" style="fill:url(#o);stroke:url(#linear-gradient-26);stroke-miterlimit:10;stroke-width:.5px"/><path d="M114.31 48.58c-3.85-2.56-6.2-7.1-7-8.86a1.11 1.11 0 0 0-.07-.16c-.16-.35-.24-.56-.24-.56a18.78 18.78 0 0 0-1.15-2c1.75-2.68 3.65-7.64 1.87-14.72-2 2.4-6.75 8.32-9.25 9.07a19.85 19.85 0 0 0-6.57-.82h-6.43a19.85 19.85 0 0 0-6.57.82c-2.5-.75-7.24-6.67-9.25-9.07-1.78 7.72 1 12.52 1.87 14.72a18.78 18.78 0 0 0-1.15 2s-.08.21-.24.56a1.11 1.11 0 0 0-.07.16c-.81 1.76-3.16 6.3-7 8.86a4.36 4.36 0 0 0 2.85.68 10.25 10.25 0 0 0-1.52 8.08 9.57 9.57 0 0 1 2.17-3 11.4 11.4 0 0 0 .57 1.8 12.69 12.69 0 0 0 5.47 6.09 46.44 46.44 0 0 1-.89-6A19 19 0 0 0 77 66.14a10.88 10.88 0 0 1 .65-5.33s2.35 9.43 4.23 12.78c.71 1.48 4.82 2.59 6.63 2.81a1.29 1.29 0 0 0 .34 0c1.81-.22 5.92-1.33 6.63-2.81 1.91-3.35 4.27-12.78 4.27-12.78a10.88 10.88 0 0 1 .65 5.33 19 19 0 0 0 5.26-9.84 46.44 46.44 0 0 1-.89 6 12.69 12.69 0 0 0 5.47-6.09 11.4 11.4 0 0 0 .57-1.8 9.57 9.57 0 0 1 2.17 3 10.25 10.25 0 0 0-1.52-8.08 4.36 4.36 0 0 0 2.85-.75zm-7-24c.87 7.36-2.07 11.83-2.07 11.83s-.35-1.88-3.21-3.33c2.83-1.72 4.79-7.66 5.23-8.53zm-36.93 0c.44.88 2.22 6.8 5.11 8.49-2.86 1.45-3.22 3.33-3.22 3.33s-2.72-4.17-1.94-11.84zm32.74 24.7c2.54 2.89-.4 10.08-1.79 12.29a16.14 16.14 0 0 1-1.07-6C99 59.78 96.09 78.28 89.52 73.28A2.4 2.4 0 0 1 89 71.6l-.36.07-.36-.07a2.4 2.4 0 0 1-.48 1.68c-7.22 4.51-9.42-13.51-10.68-17.78a16.14 16.14 0 0 1-1.07 6c-1.39-2.21-4.33-9.4-1.79-12.29a4.45 4.45 0 0 0-3.93 1.17A10.89 10.89 0 0 1 74.08 46a12.73 12.73 0 0 1 4.59-1.84c2.21-.61 3-1.43 1.46-3.72a19.91 19.91 0 0 1 6.87 8 17.33 17.33 0 0 1 1.68 5.35 17.31 17.31 0 0 1 1.63-5.26 19.86 19.86 0 0 1 6.91-8.1c-1.58 2.29-.74 3.11 1.46 3.72a13.09 13.09 0 0 1 4.5 1.77 10.84 10.84 0 0 1 3.82 4.51 4.45 4.45 0 0 0-3.93-1.17z" style="fill:url(#p);stroke:url(#linear-gradient-28);stroke-miterlimit:10;stroke-width:.5px"/><path d="M91.68 68.14h-6c-1.47 0-1.13 2.34 0 3a9.63 9.63 0 0 0 2.83.78 1.93 1.93 0 0 0 .34 0 9.63 9.63 0 0 0 2.83-.78c1.13-.66 1.47-3 0-3z" style="fill:url(#q);stroke:url(#linear-gradient-30);stroke-miterlimit:10;stroke-width:.5px"/><path d="M129.91 71.37a4.44 4.44 0 0 1-5.77-.6c-2.78-2.78-5.39-5.88-7.14-5.83s-.75 1.63 1.2 2.18c3.15.89 3.91 2.85 5.65 4.1s3.15 2.43 6.06.15z" style="fill:url(#r);stroke:url(#linear-gradient-32);stroke-miterlimit:10;stroke-width:.5px"/><path d="M137.22 69.43c-1.16-1.84-8.65-9-9.55-10.58s0-3.66-1.18-6.1c-.77-1.54-7.4-6.45-12.17-9.85 2.28-4.13 2.2-12.22 2.2-12.22l-8.9 7.44 2.08 1.54-.28-.19a29.21 29.21 0 0 0 3.89 3.66c2.74 2.25 9.78 7.68 10.63 9.48a10.83 10.83 0 0 1 .73 4.34s0 1.11 1.72 3.66a81.42 81.42 0 0 1 5.5 9.38s-4.42 3.49-6.59 3-6-4.81-9.86-5.72c-2.46-.58-5.85-.22-9 .53a29.44 29.44 0 0 0-5 1.57 7.06 7.06 0 0 0-4.2 5.12c2.45-1.83 5.72-2.22 8.7-2a9.84 9.84 0 0 0-3.14-1.14c2-.94 4-.82 7.93-.49a16.91 16.91 0 0 0-7-1.92c3.53-.58 9.3-1.33 12.1-.07 3.6 1.61 7.78 5.55 9.66 5.6s3.33-.94 6.85-3.06c1.71.9 6.03-.15 4.88-1.98zm-27.49-29.75a50.62 50.62 0 0 0 5.54-6 19.89 19.89 0 0 1-1.63 8.7c-1.83-1.26-3.3-2.28-3.91-2.7z" style="fill:url(#s);stroke:url(#linear-gradient-34);stroke-miterlimit:10;stroke-width:.5px"/><path d="M118 52.42a47.66 47.66 0 0 1 5.35 3.67c.86.95-.11 3.12 0 4.18-1.39-1.79-1.57-1-2.12-2.77a12.7 12.7 0 0 0-3.23-5.08z" style="fill:url(#t);stroke:url(#linear-gradient-36);stroke-miterlimit:10;stroke-width:.5px"/><path d="M47.45 71.37a4.44 4.44 0 0 0 5.77-.6c2.78-2.77 5.39-5.88 7.14-5.83s.75 1.63-1.2 2.18C56 68 55.25 70 53.51 71.22s-3.16 2.43-6.06.15z" style="fill:url(#u);stroke:url(#linear-gradient-38);stroke-miterlimit:10;stroke-width:.5px"/><path d="M76.16 69.32a33.6 33.6 0 0 0-7.77-2.08 17.56 17.56 0 0 0-6.47 0c-3.85.91-7.69 5.17-9.86 5.72s-6.59-3-6.59-3A81.42 81.42 0 0 1 51 60.61c1.74-2.55 1.69-3.61 1.69-3.61a10.83 10.83 0 0 1 .73-4.34c.85-1.8 7.89-7.23 10.63-9.48a29.21 29.21 0 0 0 3.89-3.66l-.28.19 2.08-1.54-8.9-7.44S60.76 38.77 63 42.9c-4.77 3.4-11.4 8.31-12.17 9.85-1.23 2.44-.27 4.51-1.18 6.1s-8.39 8.74-9.55 10.58 3.17 2.88 4.89 1.95c3.52 2.12 5 3.1 6.85 3.06s6.06-4 9.66-5.6c2.81-1.26 8.61-.51 12.14.08a17 17 0 0 0-6.81 1.91c3.92-.33 5.93-.45 7.93.49a9.94 9.94 0 0 0-3.15 1.14c3-.24 6.25.15 8.71 2a7.09 7.09 0 0 0-4.16-5.14zM62.09 33.71a50.62 50.62 0 0 0 5.54 6c-.61.42-2.08 1.44-3.91 2.73a19.89 19.89 0 0 1-1.63-8.73z" style="fill:url(#v);stroke:url(#linear-gradient-40);stroke-miterlimit:10;stroke-width:.5px"/><path d="M59.39 52.42A47.66 47.66 0 0 0 54 56.09c-.86.95.11 3.12 0 4.18 1.39-1.79 1.57-1 2.12-2.77a12.7 12.7 0 0 1 3.27-5.08z" style="fill:url(#w);stroke:url(#linear-gradient-42);stroke-miterlimit:10;stroke-width:.5px"/><circle cx="80.79" cy="51.88" r=".53" style="fill:url(#x);stroke:url(#linear-gradient-44);stroke-miterlimit:10;stroke-width:.5px"/><circle cx="54.49" cy="57.19" r=".53" style="fill:url(#y);stroke:url(#linear-gradient-46);stroke-miterlimit:10;stroke-width:.5px"/><circle cx="122.76" cy="57.19" r=".53" style="fill:url(#z);stroke:url(#linear-gradient-48);stroke-miterlimit:10;stroke-width:.5px"/><circle cx="96.65" cy="51.88" r=".53" style="fill:url(#A);stroke:url(#linear-gradient-50);stroke-miterlimit:10;stroke-width:.5px"/></g></svg>