<svg xmlns="http://www.w3.org/2000/svg" xmlns:xlink="http://www.w3.org/1999/xlink" viewBox="0 0 177.33 384.36"><defs><linearGradient id="a" x1="55.27" y1="105.69" x2="64.56" y2="105.69" gradientUnits="userSpaceOnUse"><stop offset="0" stop-color="#e7aa39"/><stop offset=".23" stop-color="#f7fc97"/><stop offset=".45" stop-color="#e7aa39"/><stop offset="1" stop-color="#632507"/></linearGradient><linearGradient id="b" x1="55.02" y1="105.69" x2="64.84" y2="105.69" gradientUnits="userSpaceOnUse"><stop offset="0" stop-color="#24304a"/><stop offset="1" stop-color="#10131e"/></linearGradient><linearGradient id="d" x1="65.77" y1="107" x2="73.39" y2="107" xlink:href="#a"/><linearGradient id="e" x1="74.79" y1="106.92" x2="79.49" y2="106.92" xlink:href="#a"/><linearGradient id="f" x1="79.92" y1="107" x2="87.31" y2="107" xlink:href="#a"/><linearGradient id="g" x1="87.63" y1="105.69" x2="96.11" y2="105.69" xlink:href="#a"/><linearGradient id="h" x1="96.66" y1="106.92" x2="101.36" y2="106.92" xlink:href="#a"/><linearGradient id="i" x1="102.38" y1="105.39" x2="104.7" y2="105.39" xlink:href="#a"/><linearGradient id="j" x1="106.36" y1="105.75" x2="113.91" y2="105.75" xlink:href="#a"/><linearGradient id="k" x1="115.02" y1="107" x2="122.41" y2="107" xlink:href="#a"/><linearGradient id="l" x1="91.44" y1="69.66" x2="99.61" y2="69.66" xlink:href="#a"/><linearGradient id="m" x1="77.9" y1="69.66" x2="86.08" y2="69.66" xlink:href="#a"/><linearGradient id="n" x1="84.78" y1="77.73" x2="86.6" y2="77.73" xlink:href="#a"/><linearGradient id="o" x1="91" y1="77.73" x2="92.82" y2="77.73" xlink:href="#a"/><linearGradient id="p" x1="63.12" y1="66.1" x2="114.39" y2="66.1" xlink:href="#a"/><linearGradient id="q" x1="84.78" y1="86.75" x2="92.74" y2="86.75" xlink:href="#a"/><linearGradient id="r" x1="116.18" y1="85.54" x2="129.99" y2="85.54" xlink:href="#a"/><linearGradient id="s" x1="97.26" y1="69.3" x2="137.49" y2="69.3" xlink:href="#a"/><linearGradient id="t" x1="118.05" y1="73.08" x2="123.76" y2="73.08" xlink:href="#a"/><linearGradient id="u" x1="47.53" y1="85.54" x2="61.34" y2="85.54" xlink:href="#a"/><linearGradient id="v" x1="40.03" y1="69.3" x2="80.43" y2="69.3" xlink:href="#a"/><linearGradient id="w" x1="53.76" y1="73.08" x2="59.47" y2="73.08" xlink:href="#a"/><linearGradient id="x" x1="80.34" y1="68.62" x2="81.4" y2="68.62" xlink:href="#a"/><linearGradient id="y" x1="54.04" y1="73.93" x2="55.1" y2="73.93" xlink:href="#a"/><linearGradient id="z" x1="122.31" y1="73.93" x2="123.37" y2="73.93" xlink:href="#a"/><linearGradient id="A" x1="96.2" y1="68.62" x2="97.26" y2="68.62" xlink:href="#a"/><radialGradient id="c" cx="-45.1" cy="-10930.83" r="36.97" gradientTransform="matrix(1.32 0 0 .13 148.33 1598.49)" gradientUnits="userSpaceOnUse"><stop offset="0" stop-color="#0e121c"/><stop offset="1" stop-color="#0e121c" stop-opacity="0"/></radialGradient></defs><g data-name="Layer 2" style="isolation:isolate"><path style="fill:#0e121c" d="M0 0h177.33v384.36H.08L0 0z"/><ellipse cx="88.76" cy="127.2" rx="48.84" ry="4.98" style="opacity:.5;mix-blend-mode:multiply;fill:url(#c)"/><path d="M64.56 104.14h-2.21a2.06 2.06 0 0 0-.25-.76 1.75 1.75 0 0 0-.47-.57 2.23 2.23 0 0 0-.68-.37 2.66 2.66 0 0 0-.82-.12 2.52 2.52 0 0 0-1.4.39 2.66 2.66 0 0 0-.92 1.15 4.54 4.54 0 0 0-.33 1.83 4.6 4.6 0 0 0 .33 1.85 2.39 2.39 0 0 0 2.3 1.52 2.66 2.66 0 0 0 .82-.12 2 2 0 0 0 .67-.34 2.07 2.07 0 0 0 .48-.54 2.18 2.18 0 0 0 .27-.74h2.21a4 4 0 0 1-.43 1.37 3.94 3.94 0 0 1-.91 1.17 4.12 4.12 0 0 1-1.36.82 5 5 0 0 1-1.78.3 4.85 4.85 0 0 1-2.47-.63 4.44 4.44 0 0 1-1.71-1.8 6.05 6.05 0 0 1-.63-2.87 5.91 5.91 0 0 1 .64-2.87 4.36 4.36 0 0 1 1.72-1.81 4.8 4.8 0 0 1 2.45-.62 5.21 5.21 0 0 1 1.66.25 4.29 4.29 0 0 1 1.37.73 4 4 0 0 1 1 1.18 4.36 4.36 0 0 1 .45 1.6z" style="fill:url(#a);stroke:url(#linear-gradient-2);stroke-miterlimit:10;stroke-width:.5px"/><path d="M69.58 111a4 4 0 0 1-2-.5 3.4 3.4 0 0 1-1.31-1.4 4.9 4.9 0 0 1 0-4.19 3.34 3.34 0 0 1 1.31-1.4 4.37 4.37 0 0 1 4.06 0 3.37 3.37 0 0 1 1.32 1.4 5 5 0 0 1 0 4.19 3.43 3.43 0 0 1-1.32 1.4 4 4 0 0 1-2.06.5zm0-1.66a1.32 1.32 0 0 0 .89-.31 1.92 1.92 0 0 0 .55-.83 3.8 3.8 0 0 0 .18-1.21 3.69 3.69 0 0 0-.18-1.2 2 2 0 0 0-.55-.84 1.31 1.31 0 0 0-.89-.3 1.36 1.36 0 0 0-.9.3 1.84 1.84 0 0 0-.55.84A3.68 3.68 0 0 0 68 107a3.79 3.79 0 0 0 .19 1.21 1.76 1.76 0 0 0 .55.83 1.36 1.36 0 0 0 .85.3z" style="fill:url(#d);stroke:url(#linear-gradient-4);stroke-miterlimit:10;stroke-width:.5px"/><path d="M74.79 110.85v-7.74h2.08v1.35H77a2 2 0 0 1 .71-1.09 1.88 1.88 0 0 1 1.15-.37 2.11 2.11 0 0 1 .35 0h.33v2a2.42 2.42 0 0 0-.42-.08 2.93 2.93 0 0 0-.49 0 1.66 1.66 0 0 0-.84.21 1.51 1.51 0 0 0-.59.56 1.64 1.64 0 0 0-.21.84v4.38z" style="fill:url(#e);stroke:url(#linear-gradient-6);stroke-miterlimit:10;stroke-width:.5px"/><path d="M83.76 111a4.08 4.08 0 0 1-2.06-.49 3.26 3.26 0 0 1-1.32-1.38 5 5 0 0 1 0-4.21 3.5 3.5 0 0 1 1.31-1.41 3.83 3.83 0 0 1 2-.5 4.17 4.17 0 0 1 1.43.24 3.26 3.26 0 0 1 1.16.73 3.35 3.35 0 0 1 .77 1.23 4.79 4.79 0 0 1 .28 1.73v.59H82v-1.26l3.25-.07a1.66 1.66 0 0 0-.2-.82 1.53 1.53 0 0 0-.56-.57 1.69 1.69 0 0 0-.82-.2 1.66 1.66 0 0 0-.87.22 1.62 1.62 0 0 0-.8 1.44v1.26a2.13 2.13 0 0 0 .21 1 1.6 1.6 0 0 0 .61.65 1.83 1.83 0 0 0 .93.23 2.28 2.28 0 0 0 .66-.1 1.34 1.34 0 0 0 .83-.8l2 .13a2.72 2.72 0 0 1-.61 1.25 3.05 3.05 0 0 1-1.2.82 4.47 4.47 0 0 1-1.67.29z" style="fill:url(#f);stroke:url(#linear-gradient-8);stroke-miterlimit:10;stroke-width:.5px"/><path d="M87.63 102.33v-1.8h8.48v1.8H93v8.52h-2.21v-8.52z" style="fill:url(#g);stroke:url(#linear-gradient-10);stroke-miterlimit:10;stroke-width:.5px"/><path d="M96.66 110.85v-7.74h2.08v1.35h.08a2 2 0 0 1 .71-1.09 1.88 1.88 0 0 1 1.15-.37 2.11 2.11 0 0 1 .35 0h.33v2a2.42 2.42 0 0 0-.42-.08 2.93 2.93 0 0 0-.49 0 1.64 1.64 0 0 0-.84.21 1.45 1.45 0 0 0-.59.56 1.64 1.64 0 0 0-.21.84v4.38z" style="fill:url(#h);stroke:url(#linear-gradient-12);stroke-miterlimit:10;stroke-width:.5px"/><path d="M103.54 102.11a1.17 1.17 0 0 1-.82-.32 1 1 0 0 1-.34-.76 1 1 0 0 1 .34-.77 1.17 1.17 0 0 1 .82-.32 1.12 1.12 0 0 1 .82.32 1 1 0 0 1 .34.76 1 1 0 0 1-.34.77 1.16 1.16 0 0 1-.82.32zm-1.08 8.74v-7.74h2.15v7.74z" style="fill:url(#i);stroke:url(#linear-gradient-14);stroke-miterlimit:10;stroke-width:.5px"/><path d="M106.36 110.85v-10.32h2.15v3.88h.06a3.11 3.11 0 0 1 .41-.64 2.06 2.06 0 0 1 .71-.54 2.34 2.34 0 0 1 1.08-.22 2.89 2.89 0 0 1 1.57.44 3 3 0 0 1 1.14 1.32 5 5 0 0 1 .43 2.22 5.08 5.08 0 0 1-.42 2.18 3 3 0 0 1-1.13 1.35 2.89 2.89 0 0 1-1.59.45 2.57 2.57 0 0 1-1.06-.2 2.14 2.14 0 0 1-.71-.52 2.66 2.66 0 0 1-.43-.64h-.09v1.24zm2.1-3.87a3.6 3.6 0 0 0 .19 1.2 1.83 1.83 0 0 0 .56.8 1.37 1.37 0 0 0 .88.29 1.42 1.42 0 0 0 .91-.27 1.91 1.91 0 0 0 .55-.81 3.58 3.58 0 0 0 .19-1.19 3.52 3.52 0 0 0-.19-1.18 1.74 1.74 0 0 0-.55-.8 1.39 1.39 0 0 0-.89-.28 1.47 1.47 0 0 0-.89.27 1.78 1.78 0 0 0-.55.79 3.6 3.6 0 0 0-.21 1.2z" style="fill:url(#j);stroke:url(#linear-gradient-16);stroke-miterlimit:10;stroke-width:.5px"/><path d="M118.86 111a4 4 0 0 1-2-.49 3.2 3.2 0 0 1-1.32-1.38 4.95 4.95 0 0 1 0-4.21 3.41 3.41 0 0 1 1.3-1.41 3.89 3.89 0 0 1 2-.5 4.11 4.11 0 0 1 1.42.24 3.18 3.18 0 0 1 1.16.73 3.5 3.5 0 0 1 .78 1.23 5 5 0 0 1 .27 1.73v.59h-5.27v-1.33h3.25a1.56 1.56 0 0 0-.2-.82 1.51 1.51 0 0 0-.55-.57 1.73 1.73 0 0 0-.83-.2 1.64 1.64 0 0 0-.86.22 1.62 1.62 0 0 0-.59.6 1.81 1.81 0 0 0-.22.84v1.26a2 2 0 0 0 .22 1 1.51 1.51 0 0 0 .6.65 1.9 1.9 0 0 0 .94.23 2.21 2.21 0 0 0 .65-.1 1.32 1.32 0 0 0 .51-.31 1.27 1.27 0 0 0 .32-.49l2 .13a2.73 2.73 0 0 1-.62 1.25 3.05 3.05 0 0 1-1.2.82 4.43 4.43 0 0 1-1.76.29z" style="fill:url(#k);stroke:url(#linear-gradient-18);stroke-miterlimit:10;stroke-width:.5px"/><path d="M91.44 72.83s1-3.72 4.32-4.79a15.41 15.41 0 0 0 3.85-1.54s-.56 3.33-2.22 3.85a6.79 6.79 0 0 1-3.43 0 5.27 5.27 0 0 0-2.52 2.48z" style="fill:url(#l);stroke:url(#linear-gradient-20);stroke-miterlimit:10;stroke-width:.5px"/><path d="M86.08 72.83s-1-3.72-4.32-4.79a15.43 15.43 0 0 1-3.86-1.54s.56 3.33 2.23 3.85a6.74 6.74 0 0 0 3.42 0 5.27 5.27 0 0 1 2.53 2.48z" style="fill:url(#m);stroke:url(#linear-gradient-22);stroke-miterlimit:10;stroke-width:.5px"/><path d="M84.78 72.54s1.79.78 1.81 4.25 0 6.13 0 6.13-.44-6.73-1.81-10.38z" style="fill:url(#n);stroke:url(#linear-gradient-24);stroke-miterlimit:10;stroke-width:.5px"/><path d="M92.82 72.54S91 73.32 91 76.79v6.13s.45-6.73 1.82-10.38z" style="fill:url(#o);stroke:url(#linear-gradient-26);stroke-miterlimit:10;stroke-width:.5px"/><path d="M114.39 65.32c-3.86-2.56-6.21-7.11-7-8.86 0-.06 0-.11-.07-.16-.16-.36-.24-.56-.24-.56a15.88 15.88 0 0 0-1.15-2c1.76-2.68 3.66-7.64 1.88-14.73-2 2.41-6.75 8.33-9.25 9.07A20.16 20.16 0 0 0 92 47.3h-6.45a20.11 20.11 0 0 0-6.57.82c-2.51-.74-7.24-6.66-9.25-9.07-1.79 7.63 1 12.49 1.87 14.73a18.78 18.78 0 0 0-1.15 2l-.23.56-.08.16c-.8 1.75-3.15 6.3-7 8.86A4.4 4.4 0 0 0 66 66a10.24 10.24 0 0 0-1.52 8.08 9.45 9.45 0 0 1 2.16-3 11.44 11.44 0 0 0 .58 1.8A12.71 12.71 0 0 0 72.67 79a44.06 44.06 0 0 1-.89-6A19.05 19.05 0 0 0 77 82.88a11 11 0 0 1 .64-5.33S80.05 87 82 90.33c.71 1.47 4.82 2.59 6.63 2.8a.91.91 0 0 0 .33 0c1.82-.21 5.93-1.33 6.63-2.8 1.92-3.35 4.28-12.78 4.28-12.78a10.82 10.82 0 0 1 .64 5.33 19 19 0 0 0 5.23-9.88 46.19 46.19 0 0 1-.89 5.94 12.76 12.76 0 0 0 5.47-6.08 12.54 12.54 0 0 0 .57-1.8 9.45 9.45 0 0 1 2.17 3 10.24 10.24 0 0 0-1.52-8.06 4.36 4.36 0 0 0 2.85-.68zm-7-24c.87 7.35-2.07 11.82-2.07 11.82s-.36-1.88-3.22-3.32c2.84-1.72 4.8-7.66 5.24-8.53zm-36.93 0c.43.87 2.22 6.8 5.11 8.49-2.86 1.44-3.22 3.32-3.22 3.32S69.63 49 70.41 41.3zM103.15 66c2.54 2.89-.41 10.08-1.8 12.29a16.25 16.25 0 0 1-1.06-6.05C99 76.51 96.17 95 89.6 90a2.4 2.4 0 0 1-.48-1.68l-.36.07-.36-.07a2.37 2.37 0 0 1-.48 1.68c-7.23 4.51-9.42-13.5-10.69-17.77a16 16 0 0 1-1.06 6.05c-1.39-2.21-4.33-9.4-1.8-12.29a4.4 4.4 0 0 0-3.92 1.17 10.87 10.87 0 0 1 3.7-4.41 12.85 12.85 0 0 1 4.6-1.84c2.2-.62 3-1.43 1.45-3.72a19.93 19.93 0 0 1 6.88 8 17.35 17.35 0 0 1 1.68 5.36 17 17 0 0 1 1.64-5.25 19.69 19.69 0 0 1 6.91-8.1c-1.58 2.29-.75 3.1 1.46 3.72a13 13 0 0 1 4.5 1.77 10.84 10.84 0 0 1 3.81 4.48 4.42 4.42 0 0 0-3.93-1.17z" style="fill:url(#p);stroke:url(#linear-gradient-28);stroke-miterlimit:10;stroke-width:.5px"/><path d="M91.76 84.88h-6c-1.46 0-1.12 2.34 0 3a9.17 9.17 0 0 0 2.84.78 1.82 1.82 0 0 0 .33 0 9.1 9.1 0 0 0 2.84-.78c1.12-.66 1.46-3-.01-3z" style="fill:url(#q);stroke:url(#linear-gradient-30);stroke-miterlimit:10;stroke-width:.5px"/><path d="M130 88.1a4.43 4.43 0 0 1-5.77-.59c-2.78-2.78-5.4-5.89-7.14-5.83s-.75 1.63 1.2 2.18c3.14.88 3.91 2.84 5.65 4.1s3.15 2.42 6.06.14z" style="fill:url(#r);stroke:url(#linear-gradient-32);stroke-miterlimit:10;stroke-width:.5px"/><path d="M137.29 86.16c-1.15-1.83-8.65-9-9.55-10.58s.06-3.66-1.17-6.09c-.78-1.55-7.41-6.46-12.17-9.85 2.28-4.13 2.2-12.22 2.2-12.22l-8.91 7.44 2.09 1.54-.28-.2a29.57 29.57 0 0 0 3.89 3.67c2.74 2.24 9.77 7.68 10.62 9.48a10.91 10.91 0 0 1 .74 4.34s-.06 1.11 1.71 3.66a79.75 79.75 0 0 1 5.54 9.38s-4.42 3.49-6.59 2.94-6-4.81-9.87-5.72c-2.45-.58-5.84-.22-9 .54a28.57 28.57 0 0 0-5 1.57 7 7 0 0 0-4.2 5.11c2.45-1.82 5.72-2.22 8.7-2a9.87 9.87 0 0 0-3.14-1.15c2-.94 4-.81 7.92-.49a16.91 16.91 0 0 0-6.94-1.91c3.52-.59 9.3-1.33 12.1-.08 3.6 1.61 7.78 5.56 9.66 5.6s3.33-.93 6.85-3c1.64.91 5.96-.14 4.8-1.98zm-27.48-29.74a50.28 50.28 0 0 0 5.54-6 20.1 20.1 0 0 1-1.63 8.71c-1.83-1.28-3.3-2.29-3.91-2.71z" style="fill:url(#s);stroke:url(#linear-gradient-34);stroke-miterlimit:10;stroke-width:.5px"/><path d="M118.05 69.16a47.66 47.66 0 0 1 5.35 3.67c.86.94-.12 3.12 0 4.17-1.39-1.79-1.57-1-2.12-2.76a12.61 12.61 0 0 0-3.23-5.08z" style="fill:url(#t);stroke:url(#linear-gradient-36);stroke-miterlimit:10;stroke-width:.5px"/><path d="M47.53 88.1a4.43 4.43 0 0 0 5.77-.59c2.78-2.78 5.39-5.89 7.14-5.83s.74 1.63-1.2 2.18c-3.15.88-3.91 2.84-5.66 4.1s-3.16 2.42-6.05.14z" style="fill:url(#u);stroke:url(#linear-gradient-38);stroke-miterlimit:10;stroke-width:.5px"/><path d="M76.24 86.06A33.6 33.6 0 0 0 68.47 84 17.79 17.79 0 0 0 62 84c-3.85.91-7.69 5.18-9.86 5.72s-6.59-2.94-6.59-2.94a81.42 81.42 0 0 1 5.5-9.38c1.77-2.55 1.72-3.66 1.72-3.66a10.81 10.81 0 0 1 .73-4.34c.85-1.8 7.89-7.24 10.63-9.48A28.93 28.93 0 0 0 68 56.2l-.27.2 2.08-1.54-8.91-7.44s-.07 8.09 2.21 12.22C58.35 63 51.72 67.94 51 69.49c-1.23 2.43-.28 4.51-1.18 6.09s-8.39 8.75-9.55 10.58 3.17 2.89 4.88 2c3.53 2.12 5 3.1 6.86 3s6-4 9.65-5.6c2.82-1.25 8.62-.5 12.14.09a16.88 16.88 0 0 0-6.8 1.9c3.92-.32 5.92-.45 7.93.49a9.86 9.86 0 0 0-3.15 1.15c3-.25 6.25.15 8.7 2a7 7 0 0 0-4.24-5.13zM62.17 50.44a49.32 49.32 0 0 0 5.54 6c-.61.42-2.08 1.43-3.91 2.73a19.79 19.79 0 0 1-1.63-8.73z" style="fill:url(#v);stroke:url(#linear-gradient-40);stroke-miterlimit:10;stroke-width:.5px"/><path d="M59.47 69.16a46.76 46.76 0 0 0-5.35 3.67c-.86.94.11 3.12 0 4.17 1.4-1.79 1.58-1 2.13-2.76a12.49 12.49 0 0 1 3.22-5.08z" style="fill:url(#w);stroke:url(#linear-gradient-42);stroke-miterlimit:10;stroke-width:.5px"/><circle cx="80.87" cy="68.62" r=".53" style="fill:url(#x);stroke:url(#linear-gradient-44);stroke-miterlimit:10;stroke-width:.5px"/><circle cx="54.57" cy="73.93" r=".53" style="fill:url(#y);stroke:url(#linear-gradient-46);stroke-miterlimit:10;stroke-width:.5px"/><circle cx="122.84" cy="73.93" r=".53" style="fill:url(#z);stroke:url(#linear-gradient-48);stroke-miterlimit:10;stroke-width:.5px"/><circle cx="96.73" cy="68.62" r=".53" style="fill:url(#A);stroke:url(#linear-gradient-50);stroke-miterlimit:10;stroke-width:.5px"/></g></svg>